<svg xmlns="http://www.w3.org/2000/svg" version="1.1" xmlns:xlink="http://www.w3.org/1999/xlink" xmlns:svgjs="http://svgjs.dev/svgjs" viewBox="0 0 1422 800"><g stroke-width="4" stroke="#4502cc" fill="none" stroke-linecap="butt"><line x1="0" y1="0" x2="90" y2="90" opacity="0.05"></line><line x1="180" y1="0" x2="90" y2="90" opacity="0.05"></line><line x1="270" y1="0" x2="180" y2="90" opacity="0.05"></line><line x1="360" y1="0" x2="270" y2="90" opacity="0.05"></line><line x1="450" y1="0" x2="360" y2="90" opacity="0.05"></line><line x1="540" y1="0" x2="450" y2="90" opacity="0.05"></line><line x1="540" y1="0" x2="630" y2="90" opacity="0.05"></line><line x1="630" y1="0" x2="720" y2="90" opacity="0.05"></line><line x1="720" y1="0" x2="810" y2="90" opacity="0.05"></line><line x1="810" y1="0" x2="900" y2="90" opacity="0.05"></line><line x1="900" y1="0" x2="990" y2="90" opacity="0.05"></line><line x1="1080" y1="0" x2="990" y2="90" opacity="0.05"></line><line x1="1170" y1="0" x2="1080" y2="90" opacity="0.05"></line><line x1="1260" y1="0" x2="1170" y2="90" opacity="0.05"></line><line x1="1260" y1="0" x2="1350" y2="90" opacity="0.05"></line><line x1="1350" y1="0" x2="1440" y2="90" opacity="0.05"></line><line x1="90" y1="90" x2="0" y2="180" opacity="0.16"></line><line x1="180" y1="90" x2="90" y2="180" opacity="0.16"></line><line x1="180" y1="90" x2="270" y2="180" opacity="0.16"></line><line x1="270" y1="90" x2="360" y2="180" opacity="0.16"></line><line x1="360" y1="90" x2="450" y2="180" opacity="0.16"></line><line x1="540" y1="90" x2="450" y2="180" opacity="0.16"></line><line x1="630" y1="90" x2="540" y2="180" opacity="0.16"></line><line x1="720" y1="90" x2="630" y2="180" opacity="0.16"></line><line x1="810" y1="90" x2="720" y2="180" opacity="0.16"></line><line x1="810" y1="90" x2="900" y2="180" opacity="0.16"></line><line x1="990" y1="90" x2="900" y2="180" opacity="0.16"></line><line x1="990" y1="90" x2="1080" y2="180" opacity="0.16"></line><line x1="1170" y1="90" x2="1080" y2="180" opacity="0.16"></line><line x1="1260" y1="90" x2="1170" y2="180" opacity="0.16"></line><line x1="1350" y1="90" x2="1260" y2="180" opacity="0.16"></line><line x1="1440" y1="90" x2="1350" y2="180" opacity="0.16"></line><line x1="0" y1="180" x2="90" y2="270" opacity="0.26"></line><line x1="90" y1="180" x2="180" y2="270" opacity="0.26"></line><line x1="270" y1="180" x2="180" y2="270" opacity="0.26"></line><line x1="360" y1="180" x2="270" y2="270" opacity="0.26"></line><line x1="450" y1="180" x2="360" y2="270" opacity="0.26"></line><line x1="540" y1="180" x2="450" y2="270" opacity="0.26"></line><line x1="540" y1="180" x2="630" y2="270" opacity="0.26"></line><line x1="630" y1="180" x2="720" y2="270" opacity="0.26"></line><line x1="720" y1="180" x2="810" y2="270" opacity="0.26"></line><line x1="900" y1="180" x2="810" y2="270" opacity="0.26"></line><line x1="900" y1="180" x2="990" y2="270" opacity="0.26"></line><line x1="990" y1="180" x2="1080" y2="270" opacity="0.26"></line><line x1="1080" y1="180" x2="1170" y2="270" opacity="0.26"></line><line x1="1170" y1="180" x2="1260" y2="270" opacity="0.26"></line><line x1="1260" y1="180" x2="1350" y2="270" opacity="0.26"></line><line x1="1350" y1="180" x2="1440" y2="270" opacity="0.26"></line><line x1="90" y1="270" x2="0" y2="360" opacity="0.37"></line><line x1="90" y1="270" x2="180" y2="360" opacity="0.37"></line><line x1="180" y1="270" x2="270" y2="360" opacity="0.37"></line><line x1="360" y1="270" x2="270" y2="360" opacity="0.37"></line><line x1="360" y1="270" x2="450" y2="360" opacity="0.37"></line><line x1="540" y1="270" x2="450" y2="360" opacity="0.37"></line><line x1="540" y1="270" x2="630" y2="360" opacity="0.37"></line><line x1="630" y1="270" x2="720" y2="360" opacity="0.37"></line><line x1="720" y1="270" x2="810" y2="360" opacity="0.37"></line><line x1="900" y1="270" x2="810" y2="360" opacity="0.37"></line><line x1="900" y1="270" x2="990" y2="360" opacity="0.37"></line><line x1="990" y1="270" x2="1080" y2="360" opacity="0.37"></line><line x1="1080" y1="270" x2="1170" y2="360" opacity="0.37"></line><line x1="1170" y1="270" x2="1260" y2="360" opacity="0.37"></line><line x1="1350" y1="270" x2="1260" y2="360" opacity="0.37"></line><line x1="1350" y1="270" x2="1440" y2="360" opacity="0.37"></line><line x1="0" y1="360" x2="90" y2="450" opacity="0.48"></line><line x1="180" y1="360" x2="90" y2="450" opacity="0.48"></line><line x1="180" y1="360" x2="270" y2="450" opacity="0.48"></line><line x1="270" y1="360" x2="360" y2="450" opacity="0.48"></line><line x1="360" y1="360" x2="450" y2="450" opacity="0.48"></line><line x1="540" y1="360" x2="450" y2="450" opacity="0.48"></line><line x1="630" y1="360" x2="540" y2="450" opacity="0.48"></line><line x1="630" y1="360" x2="720" y2="450" opacity="0.48"></line><line x1="720" y1="360" x2="810" y2="450" opacity="0.48"></line><line x1="900" y1="360" x2="810" y2="450" opacity="0.48"></line><line x1="900" y1="360" x2="990" y2="450" opacity="0.48"></line><line x1="990" y1="360" x2="1080" y2="450" opacity="0.48"></line><line x1="1170" y1="360" x2="1080" y2="450" opacity="0.48"></line><line x1="1260" y1="360" x2="1170" y2="450" opacity="0.48"></line><line x1="1260" y1="360" x2="1350" y2="450" opacity="0.48"></line><line x1="1440" y1="360" x2="1350" y2="450" opacity="0.48"></line><line x1="90" y1="450" x2="0" y2="540" opacity="0.58"></line><line x1="180" y1="450" x2="90" y2="540" opacity="0.58"></line><line x1="270" y1="450" x2="180" y2="540" opacity="0.58"></line><line x1="270" y1="450" x2="360" y2="540" opacity="0.58"></line><line x1="360" y1="450" x2="450" y2="540" opacity="0.58"></line><line x1="450" y1="450" x2="540" y2="540" opacity="0.58"></line><line x1="540" y1="450" x2="630" y2="540" opacity="0.58"></line><line x1="630" y1="450" x2="720" y2="540" opacity="0.58"></line><line x1="720" y1="450" x2="810" y2="540" opacity="0.58"></line><line x1="810" y1="450" x2="900" y2="540" opacity="0.58"></line><line x1="990" y1="450" x2="900" y2="540" opacity="0.58"></line><line x1="990" y1="450" x2="1080" y2="540" opacity="0.58"></line><line x1="1080" y1="450" x2="1170" y2="540" opacity="0.58"></line><line x1="1170" y1="450" x2="1260" y2="540" opacity="0.58"></line><line x1="1350" y1="450" x2="1260" y2="540" opacity="0.58"></line><line x1="1350" y1="450" x2="1440" y2="540" opacity="0.58"></line><line x1="0" y1="540" x2="90" y2="630" opacity="0.69"></line><line x1="90" y1="540" x2="180" y2="630" opacity="0.69"></line><line x1="270" y1="540" x2="180" y2="630" opacity="0.69"></line><line x1="360" y1="540" x2="270" y2="630" opacity="0.69"></line><line x1="360" y1="540" x2="450" y2="630" opacity="0.69"></line><line x1="540" y1="540" x2="450" y2="630" opacity="0.69"></line><line x1="630" y1="540" x2="540" y2="630" opacity="0.69"></line><line x1="630" y1="540" x2="720" y2="630" opacity="0.69"></line><line x1="810" y1="540" x2="720" y2="630" opacity="0.69"></line><line x1="900" y1="540" x2="810" y2="630" opacity="0.69"></line><line x1="990" y1="540" x2="900" y2="630" opacity="0.69"></line><line x1="990" y1="540" x2="1080" y2="630" opacity="0.69"></line><line x1="1080" y1="540" x2="1170" y2="630" opacity="0.69"></line><line x1="1260" y1="540" x2="1170" y2="630" opacity="0.69"></line><line x1="1350" y1="540" x2="1260" y2="630" opacity="0.69"></line><line x1="1350" y1="540" x2="1440" y2="630" opacity="0.69"></line><line x1="90" y1="630" x2="0" y2="720" opacity="0.80"></line><line x1="90" y1="630" x2="180" y2="720" opacity="0.80"></line><line x1="180" y1="630" x2="270" y2="720" opacity="0.80"></line><line x1="360" y1="630" x2="270" y2="720" opacity="0.80"></line><line x1="450" y1="630" x2="360" y2="720" opacity="0.80"></line><line x1="450" y1="630" x2="540" y2="720" opacity="0.80"></line><line x1="540" y1="630" x2="630" y2="720" opacity="0.80"></line><line x1="630" y1="630" x2="720" y2="720" opacity="0.80"></line><line x1="810" y1="630" x2="720" y2="720" opacity="0.80"></line><line x1="900" y1="630" x2="810" y2="720" opacity="0.80"></line><line x1="900" y1="630" x2="990" y2="720" opacity="0.80"></line><line x1="990" y1="630" x2="1080" y2="720" opacity="0.80"></line><line x1="1080" y1="630" x2="1170" y2="720" opacity="0.80"></line><line x1="1260" y1="630" x2="1170" y2="720" opacity="0.80"></line><line x1="1350" y1="630" x2="1260" y2="720" opacity="0.80"></line><line x1="1440" y1="630" x2="1350" y2="720" opacity="0.80"></line><line x1="90" y1="720" x2="0" y2="810" opacity="0.91"></line><line x1="90" y1="720" x2="180" y2="810" opacity="0.91"></line><line x1="270" y1="720" x2="180" y2="810" opacity="0.91"></line><line x1="360" y1="720" x2="270" y2="810" opacity="0.91"></line><line x1="450" y1="720" x2="360" y2="810" opacity="0.91"></line><line x1="450" y1="720" x2="540" y2="810" opacity="0.91"></line><line x1="630" y1="720" x2="540" y2="810" opacity="0.91"></line><line x1="630" y1="720" x2="720" y2="810" opacity="0.91"></line><line x1="720" y1="720" x2="810" y2="810" opacity="0.91"></line><line x1="810" y1="720" x2="900" y2="810" opacity="0.91"></line><line x1="990" y1="720" x2="900" y2="810" opacity="0.91"></line><line x1="990" y1="720" x2="1080" y2="810" opacity="0.91"></line><line x1="1080" y1="720" x2="1170" y2="810" opacity="0.91"></line><line x1="1170" y1="720" x2="1260" y2="810" opacity="0.91"></line><line x1="1350" y1="720" x2="1260" y2="810" opacity="0.91"></line><line x1="1440" y1="720" x2="1350" y2="810" opacity="0.91"></line></g></svg>
