<svg id="visual" viewBox="0 0 900 600" width="900" height="600" xmlns="http://www.w3.org/2000/svg" xmlns:xlink="http://www.w3.org/1999/xlink" version="1.1"><rect x="0" y="0" width="900" height="600" fill="#00295d"></rect><defs><linearGradient id="grad1_0" x1="33.3%" y1="0%" x2="100%" y2="100%"><stop offset="20%" stop-color="#00295d" stop-opacity="1"></stop><stop offset="80%" stop-color="#00295d" stop-opacity="1"></stop></linearGradient></defs><defs><linearGradient id="grad2_0" x1="0%" y1="0%" x2="66.7%" y2="100%"><stop offset="20%" stop-color="#00295d" stop-opacity="1"></stop><stop offset="80%" stop-color="#00295d" stop-opacity="1"></stop></linearGradient></defs><g transform="translate(900, 0)"><path d="M0 270.4C-30.6 252.9 -61.1 235.5 -92.2 222.7C-123.3 209.8 -155 201.7 -183.1 183.1C-211.3 164.6 -235.9 135.7 -249.8 103.5C-263.8 71.2 -267.1 35.6 -270.4 0L0 0Z" fill="#9032dc"></path></g><g transform="translate(0, 600)"><path d="M0 -270.4C24.4 -240.7 48.8 -211 83.8 -202.3C118.8 -193.7 164.5 -206.1 191.2 -191.2C217.9 -176.3 225.6 -134 235.6 -97.6C245.6 -61.2 258 -30.6 270.4 0L0 0Z" fill="#9032dc"></path></g></svg>