<svg xmlns="http://www.w3.org/2000/svg" version="1.1" xmlns:xlink="http://www.w3.org/1999/xlink" xmlns:svgjs="http://svgjs.dev/svgjs" viewBox="0 0 1422 800"><g shape-rendering="crispEdges"><g><use xlink:href="#SvgjsSymbol1000" x="462.5" y="175" fill="hsl(286, 100%, 51%)"></use><use xlink:href="#SvgjsSymbol1001" x="462.5" y="175" fill="#fd59ff"></use><use xlink:href="#SvgjsSymbol1002" x="462.5" y="175" fill="#8e00cb"></use></g><g><use xlink:href="#SvgjsSymbol1000" x="125" y="412.5" fill="hsl(286, 100%, 51%)"></use><use xlink:href="#SvgjsSymbol1001" x="125" y="412.5" fill="#fd59ff"></use><use xlink:href="#SvgjsSymbol1002" x="125" y="412.5" fill="#8e00cb"></use></g><g><use xlink:href="#SvgjsSymbol1000" x="1212.5" y="300" fill="hsl(286, 100%, 51%)"></use><use xlink:href="#SvgjsSymbol1001" x="1212.5" y="300" fill="#fd59ff"></use><use xlink:href="#SvgjsSymbol1002" x="1212.5" y="300" fill="#8e00cb"></use></g><g><use xlink:href="#SvgjsSymbol1000" x="875" y="437.5" fill="hsl(286, 100%, 51%)"></use><use xlink:href="#SvgjsSymbol1001" x="875" y="437.5" fill="#fd59ff"></use><use xlink:href="#SvgjsSymbol1002" x="875" y="437.5" fill="#8e00cb"></use></g><g><use xlink:href="#SvgjsSymbol1006" x="537.5" y="612.5" fill="hsl(286, 100%, 51%)"></use><use xlink:href="#SvgjsSymbol1007" x="537.5" y="612.5" fill="#fd59ff"></use><use xlink:href="#SvgjsSymbol1008" x="537.5" y="612.5" fill="#8e00cb"></use></g><g><use xlink:href="#SvgjsSymbol1006" x="1000" y="150" fill="#52c843"></use><use xlink:href="#SvgjsSymbol1007" x="1000" y="150" fill="#89fc73"></use><use xlink:href="#SvgjsSymbol1008" x="1000" y="150" fill="#009608"></use></g><g><use xlink:href="#SvgjsSymbol1006" x="662.5" y="375" fill="#52c843"></use><use xlink:href="#SvgjsSymbol1007" x="662.5" y="375" fill="#89fc73"></use><use xlink:href="#SvgjsSymbol1008" x="662.5" y="375" fill="#009608"></use></g><g><use xlink:href="#SvgjsSymbol1006" x="37.5" y="150" fill="#52c843"></use><use xlink:href="#SvgjsSymbol1007" x="37.5" y="150" fill="#89fc73"></use><use xlink:href="#SvgjsSymbol1008" x="37.5" y="150" fill="#009608"></use></g></g><symbol id="SvgjsSymbol1000"><polygon points="0,12.5 25,0 50,12.5 25,25"></polygon></symbol><symbol id="SvgjsSymbol1001"><polygon points="0,12.5 25,25 25,50 0,37.5"></polygon></symbol><symbol id="SvgjsSymbol1002"><polygon points="25,25 50,12.5 50,37.5 25,50"></polygon></symbol><g></g><symbol id="SvgjsSymbol1003"><polygon points="0,18.75 37.5,0 75,18.75 37.5,37.5"></polygon></symbol><symbol id="SvgjsSymbol1004"><polygon points="0,18.75 37.5,37.5 37.5,75 0,56.25"></polygon></symbol><symbol id="SvgjsSymbol1005"><polygon points="37.5,37.5 75,18.75 75,56.25 37.5,75"></polygon></symbol><symbol id="SvgjsSymbol1006"><polygon points="0,12.5 25,0 50,12.5 25,25"></polygon></symbol><symbol id="SvgjsSymbol1007"><polygon points="0,12.5 25,25 25,50 0,37.5"></polygon></symbol><symbol id="SvgjsSymbol1008"><polygon points="25,25 50,12.5 50,37.5 25,50"></polygon></symbol></svg>