<svg xmlns="http://www.w3.org/2000/svg" version="1.1" xmlns:xlink="http://www.w3.org/1999/xlink" xmlns:svgjs="http://svgjs.dev/svgjs" viewBox="0 0 800 800" opacity="0.84"><defs><linearGradient x1="50%" y1="0%" x2="50%" y2="100%" id="ccchaos-grad"><stop stop-color="#9032dc" stop-opacity="1" offset="0%"></stop><stop stop-color="#60e14f" stop-opacity="1" offset="100%"></stop></linearGradient></defs><g stroke-width="1" stroke="url(#ccchaos-grad)" fill="none" stroke-linecap="round"><path d="M421.06 146.97C430.19 144.84 439.33 143.24 448.42 142.16 457.51 141.21 466.54 140.84 475.46 141.06 484.33 141.47 493.02 142.5 501.45 144.13 509.74 146 517.68 148.47 525.17 151.52 532.4 154.81 539.05 158.66 545.02 163.04 550.63 167.63 555.45 172.72 559.44 178.26 563.01 183.96 565.74 190.08 567.62 196.56 569.24 203.17 570.17 210.1 570.55 217.32 571.03 224.61 571.3 232.15 571.59 239.9 572.56 247.69 574 255.67 576.14 263.8 579.53 271.95 583.98 280.23 589.59 288.63 596.65 297.02 604.85 305.53 614.05 314.11 624.2 322.69 634.81 331.36 645.46 340.09 655.91 348.81 665.48 357.6 673.65 366.45 680.3 375.29 684.75 384.18 686.67 393.1 686.36 402.03 683.4 410.98 677.9 419.94 670.72 428.9 661.97 437.65 652.28 446.15 642.52 454.65 632.94 462.9 624.06 470.86 616.53 478.81 610.37 486.45 605.73 493.77 602.98 501.04 601.7 507.97 601.7 514.51 603.16 520.99 605.33 527.06 607.85 532.72 612.24 540.86 617.71 554.82 617.42 560.63 614.57 565.94 601 574.59 590.75 578.09 582.91 580.45 574.32 582.57 565.16 584.52 555.62 586.72 545.74 588.84 535.68 590.92 525.49 593.39 515.26 595.91 505.1 598.53 494.95 601.63 484.93 604.89 475.1 608.32 465.32 612.26 455.73 616.38 446.35 620.64 437.03 625.36 427.89 630.16 418.96 634.96 410.05 640.05 401.32 645.01 392.77 649.72 384.22 654.48 376.04 658.68 368.22 662.26 360.38 665.63 352.89 668.21 345.74 669.98 338.56 671.34 331.7 671.8 325.17 671.34 318.58 670.4 312.28 668.54 306.26 665.79 300.12 662.56 294.21 658.5 288.5 653.68 282.6 648.46 276.83 642.56 271.14 636.06 265.19 629.28 259.25 622.01 253.29 614.33 247 606.48 240.66 598.32 234.25 589.91 227.51 581.44 220.73 572.8 213.94 564.03 206.93 555.28 200.02 546.45 193.28 537.59 186.54 528.77 180.14 519.94 174.18 511.12 168.49 502.36 163.42 493.61 159.07 484.89 155.18 476.22 152.1 467.57 149.9 458.94 148.18 450.35 147.3 441.78 147.22 433.22 147.45 424.69 148.31 416.16 149.69 407.65 151.03 399.15 152.64 390.66 154.43 382.19 155.8 373.73 157.11 365.48 158.32 357.47 158.97 349.45 159.53 341.67 160.02 334.13 160.09 326.6 160.26 319.31 160.62 312.3 160.84 305.28 161.48 298.54 162.6 292.09 163.91 285.64 165.89 279.48 168.56 273.63 171.64 267.77 175.48 262.2 180.06 256.95 185.09 251.67 190.82 246.68 197.17 241.99 203.88 237.25 211.09 232.78 218.72 228.58 226.53 224.29 234.64 220.25 242.96 216.44 251.31 212.49 259.77 208.75 268.3 205.2 276.74 201.47 285.2 197.9 293.67 194.5 302 190.87 310.35 187.38 318.7 184.04 326.92 180.46 335.19 177.02 343.52 173.73 351.75 170.22 360.08 166.88 368.54 163.73 376.94 160.42 385.51 157.34 394.26 154.54 402.98 151.66 411.91 149.12 421.05 146.97" stroke-dasharray="5 0" transform="rotate(0, 400, 400)" opacity="1.00"></path><path d="M422.49 158.94C431.22 156.85 439.85 155.26 448.34 154.17 456.82 153.19 465.13 152.76 473.23 152.89 481.26 153.18 489.02 154.06 496.44 155.5 503.71 157.15 510.56 159.37 516.9 162.15 523.02 165.14 528.54 168.66 533.4 172.69 537.97 176.92 541.84 181.62 544.98 186.76 547.85 192.06 550.05 197.77 551.6 203.83 553.08 210.02 554.11 216.54 554.82 223.34 555.82 230.22 556.83 237.36 558.03 244.71 560.01 252.12 562.55 259.71 565.83 267.46 570.27 275.24 575.68 283.16 582.1 291.2 589.72 299.24 598.24 307.39 607.49 315.62 617.42 323.85 627.55 332.16 637.5 340.53 647.11 348.89 655.76 357.32 663.01 365.77 668.82 374.23 672.59 382.72 674.05 391.22 673.53 399.73 670.62 408.24 665.44 416.73 658.75 425.22 650.62 433.49 641.59 441.5 632.42 449.51 623.3 457.26 614.68 464.72 607.18 472.16 600.79 479.3 595.68 486.12 592.22 492.9 590.08 499.33 589.14 505.41 590.2 514.25 596.04 529.9 599.11 536.67 601.09 548.29 591.24 562.18 583.29 565.79 577.02 568.26 569.94 570.54 562.2 572.68 554.03 575.07 545.4 577.39 536.43 579.69 527.26 582.35 517.92 585.06 508.51 587.85 499.04 591.07 489.59 594.42 480.23 597.91 470.88 601.84 461.65 605.91 452.59 610.08 443.56 614.64 434.7 619.24 426.02 623.82 417.36 628.65 408.88 633.32 400.58 637.75 392.28 642.22 384.35 646.17 376.78 649.55 369.18 652.74 361.92 655.22 354.98 656.95 348 658.33 341.31 658.89 334.91 658.62 328.43 657.93 322.18 656.38 316.17 654.03 310.01 651.25 304.03 647.69 298.18 643.41 292.13 638.77 286.16 633.47 280.22 627.6 274.03 621.45 267.83 614.81 261.59 607.75 255.07 600.52 248.5 592.95 241.88 585.11 235.02 577.19 228.15 569.06 221.32 560.79 214.38 552.5 207.58 544.1 201.02 535.64 194.55 527.2 188.46 518.73 182.86 510.24 177.57 501.8 172.91 493.35 168.98 484.92 165.51 476.53 162.83 468.15 160.98 459.81 159.6 451.49 158.99 443.2 159.13 434.93 159.55 426.69 160.53 418.47 162.01 410.28 163.42 402.1 165.08 393.95 166.89 385.84 168.3 377.73 169.65 369.85 170.89 362.21 171.59 354.57 172.18 347.17 172.7 340.01 172.78 332.85 172.92 325.95 173.21 319.31 173.32 312.66 173.77 306.27 174.64 300.17 175.64 294.05 177.21 288.21 179.42 282.66 181.97 277.09 185.23 271.79 189.18 266.78 193.56 261.73 198.61 256.95 204.3 252.43 210.35 247.86 216.94 243.53 223.99 239.45 231.28 235.27 238.92 231.3 246.83 227.55 254.85 223.66 263.04 219.96 271.36 216.43 279.66 212.73 288.03 209.18 296.44 205.77 304.77 202.17 313.13 198.7 321.49 195.37 329.76 191.82 338.06 188.41 346.39 185.15 354.65 181.7 362.96 178.41 371.33 175.32 379.67 172.08 388.1 169.07 396.62 166.34 405.13 163.53 413.75 161.04 422.48 158.94" stroke-dasharray="5 1" transform="rotate(5.050000000000001, 400, 400)" opacity="0.95"></path><path d="M421.16 170.91C429.43 168.87 437.5 167.3 445.36 166.2 453.19 165.2 460.78 164.72 468.06 164.75 475.29 164.94 482.17 165.67 488.64 166.93 495 168.38 500.89 170.36 506.26 172.86 513.77 177.16 525.55 188.47 529.8 195.37 532.31 200.27 534.32 205.56 535.88 211.19 537.53 216.96 538.93 223.04 540.21 229.41 541.92 235.86 543.78 242.57 545.97 249.5 548.95 256.48 552.52 263.66 556.82 271 562.15 278.38 568.32 285.9 575.33 293.54 583.29 301.19 591.92 308.95 601.05 316.79 610.59 324.64 620.13 332.56 629.33 340.53 638.07 348.51 645.81 356.53 652.18 364.58 657.2 372.63 660.34 380.7 661.39 388.76 660.69 396.83 657.85 404.89 652.97 412.91 646.76 420.94 639.24 428.73 630.84 436.26 622.26 443.79 613.63 451.06 605.34 458.04 597.93 465 591.42 471.67 585.96 478.03 580.48 487.35 576.88 504.24 577.87 511.77 582.68 525.05 585.73 541.51 583.54 545.88 579.52 550.1 565.95 557.66 556.79 561.19 550.03 563.74 542.71 566.25 534.97 568.74 526.97 571.56 518.68 574.43 510.2 577.35 501.61 580.66 492.93 584.07 484.24 587.58 475.52 591.48 466.84 595.47 458.25 599.53 449.66 603.92 441.19 608.32 432.85 612.67 424.53 617.23 416.35 621.63 408.32 625.78 400.29 629.97 392.6 633.68 385.22 636.85 377.82 639.86 370.73 642.23 363.91 643.92 357.05 645.31 350.43 645.95 344.05 645.83 337.59 645.35 331.31 644.1 325.2 642.1 318.95 639.73 312.81 636.63 306.77 632.87 300.53 628.76 294.33 624.05 288.14 618.78 281.73 613.24 275.29 607.22 268.83 600.79 262.13 594.18 255.41 587.21 248.68 579.97 241.78 572.62 234.93 565.04 228.19 557.29 221.41 549.51 214.83 541.59 208.55 533.58 202.43 525.58 196.73 517.51 191.55 509.41 186.71 501.34 182.51 493.24 179.02 485.15 175.98 477.1 173.7 469.04 172.21 461.01 171.14 453.01 170.8 445.03 171.14 437.09 171.72 429.16 172.82 421.26 174.37 413.4 175.83 405.56 177.53 397.75 179.36 390 180.79 382.24 182.17 374.72 183.44 367.45 184.19 360.17 184.84 353.12 185.39 346.32 185.5 339.52 185.65 332.96 185.9 326.66 185.94 320.35 186.25 314.29 186.91 308.5 188.25 299.91 194.05 283.99 198.75 276.66 202.47 271.81 206.84 267.21 211.82 262.85 217.17 258.41 223.06 254.21 229.44 250.22 236.1 246.13 243.15 242.23 250.52 238.53 258.05 234.7 265.81 231.03 273.75 227.52 281.74 223.85 289.85 220.31 298.02 216.93 306.19 213.35 314.4 209.9 322.62 206.59 330.81 203.09 339.02 199.72 347.22 196.5 355.39 193.11 363.58 189.89 371.78 186.86 379.96 183.71 388.17 180.78 396.4 178.11 404.62 175.38 412.88 172.97 421.15 170.91" stroke-dasharray="6 4" transform="rotate(10.100000000000001, 400, 400)" opacity="0.91"></path><path d="M417.21 182.88C424.98 180.9 432.48 179.35 439.7 178.25 446.89 177.24 453.78 176.71 460.32 176.66 469.85 177.05 486.72 180.56 493.9 183.68 500.41 187.54 510.72 197.81 514.62 204.13 518.14 211.05 524.08 226.83 527.07 235.57 529.57 241.58 532.33 247.84 535.48 254.32 539.39 260.86 543.88 267.6 549.02 274.5 555.05 281.45 561.77 288.54 569.14 295.74 577.24 302.98 585.79 310.32 594.61 317.73 603.65 325.17 612.51 332.67 620.91 340.22 628.77 347.78 635.62 355.37 641.15 362.99 645.43 370.61 648 378.24 648.69 385.85 647.84 393.47 645.08 401.08 640.51 408.63 634.76 416.18 627.82 423.5 620.05 430.57 612.06 437.63 603.94 444.44 596.01 450.96 588.78 457.48 582.23 463.71 576.55 469.63 570.3 478.34 564.32 494.13 564 501.19 566.99 513.79 569.98 529.72 568.75 534.1 566.13 538.39 556.1 546.28 548.88 550.04 543.45 552.75 537.43 555.42 530.91 558.07 524.14 561.02 516.98 564 509.55 567.03 501.96 570.39 494.19 573.83 486.31 577.33 478.36 581.17 470.36 585.07 462.37 588.99 454.36 593.2 446.38 597.39 438.48 601.5 430.58 605.8 422.75 609.93 415.03 613.81 407.31 617.73 399.85 621.19 392.66 624.16 385.46 627 378.49 629.25 371.75 630.88 364.97 632.26 358.38 632.96 351.97 632.98 345.47 632.68 339.11 631.69 332.87 630.01 326.5 628.01 320.2 625.34 313.96 622.05 307.54 618.45 301.15 614.28 294.75 609.58 288.17 604.64 281.57 599.23 274.97 593.41 268.2 587.41 261.44 581.06 254.71 574.41 247.9 567.65 241.19 560.65 234.64 553.46 228.13 546.21 221.88 538.8 215.97 531.29 210.27 523.76 205.03 516.15 200.32 508.48 195.97 500.83 192.25 493.13 189.23 485.43 186.63 477.75 184.75 470.06 183.6 462.4 182.83 454.75 182.73 447.11 183.26 439.51 183.98 431.93 185.17 424.37 186.77 416.87 188.27 409.37 189.98 401.91 191.82 394.52 193.28 387.12 194.68 379.96 195.98 373.03 196.79 366.1 197.48 359.4 198.08 352.94 198.26 346.47 198.43 340.24 198.67 334.25 198.79 325.37 200.37 308.79 202.25 301.08 204.96 293.57 213.76 279.63 219.89 273.17 224.5 268.86 229.66 264.76 235.31 260.85 241.25 256.85 247.61 253.01 254.32 249.36 261.23 245.57 268.42 241.94 275.83 238.45 283.35 234.82 291.02 231.31 298.8 227.94 306.63 224.4 314.52 220.99 322.45 217.71 330.38 214.26 338.34 210.95 346.29 207.79 354.23 204.47 362.17 201.32 370.08 198.37 378 195.3 385.89 192.45 393.75 189.87 401.61 187.22 409.44 184.88 417.2 182.88" stroke-dasharray="5 1" transform="rotate(15.149999999999999, 400, 400)" opacity="0.86"></path><path d="M411.15 194.85C418.37 192.93 425.31 191.41 431.92 190.32 438.51 189.3 444.76 188.73 450.65 188.61 459.23 188.84 474.26 191.85 480.66 194.6 486.54 198.05 496.21 207.3 500.17 213.04 504.04 219.35 511.52 233.82 515.64 241.88 518.94 247.43 522.56 253.23 526.58 259.24 531.29 265.33 536.52 271.6 542.32 278.04 548.83 284.53 555.87 291.16 563.4 297.92 571.43 304.7 579.72 311.59 588.1 318.56 596.52 325.55 604.65 332.61 612.21 339.71 619.2 346.82 625.18 353.98 629.92 361.14 633.53 368.31 635.58 375.49 635.95 382.65 634.97 389.81 632.32 396.95 628.05 404.03 622.75 411.11 616.36 417.97 609.2 424.59 601.8 431.2 594.2 437.56 586.68 443.66 579.69 449.75 573.21 455.57 567.4 461.11 560.57 469.26 552.53 484.08 550.97 490.74 551.91 502.78 553.87 518.31 553.16 522.73 551.49 527.1 544.2 535.29 538.62 539.26 534.37 542.09 529.53 544.89 524.17 547.67 518.57 550.71 512.54 553.78 506.16 556.87 499.63 560.25 492.82 563.68 485.82 567.15 478.73 570.9 471.51 574.68 464.2 578.46 456.86 582.48 449.47 586.45 442.07 590.33 434.67 594.36 427.27 598.22 419.89 601.84 412.51 605.49 405.33 608.72 398.34 611.48 391.34 614.15 384.51 616.27 377.84 617.84 371.14 619.19 364.57 619.94 358.12 620.07 351.6 619.93 345.17 619.16 338.82 617.77 332.36 616.09 325.93 613.81 319.54 610.96 313.02 607.84 306.5 604.18 299.99 600.03 293.34 595.65 286.7 590.82 280.07 585.59 273.35 580.19 266.68 574.44 260.09 568.4 253.49 562.24 247.04 555.82 240.8 549.2 234.67 542.51 228.84 535.65 223.39 528.66 218.18 521.64 213.44 514.52 209.25 507.33 205.42 500.14 202.2 492.89 199.64 485.61 197.47 478.35 195.98 471.06 195.16 463.79 194.67 456.52 194.79 449.27 195.48 442.04 196.32 434.83 197.59 427.64 199.22 420.5 200.74 413.36 202.46 406.27 204.28 399.23 205.76 392.2 207.18 385.39 208.5 378.8 209.36 372.21 210.12 365.85 210.78 359.71 211.13 350.6 211.6 333.48 212.08 325.48 212.77 317.66 216.33 303.07 219.45 296.28 223.48 289.61 234.7 277.14 241.8 271.3 246.97 267.37 252.57 263.6 258.55 259.99 264.74 256.26 271.24 252.66 278 249.21 284.9 245.62 291.99 242.15 299.22 238.81 306.54 235.32 313.96 231.95 321.44 228.72 328.96 225.34 336.51 222.09 344.06 218.99 351.63 215.76 359.19 212.7 366.71 209.83 374.24 206.86 381.73 204.11 389.14 201.61 396.56 199.06 403.91 196.79 411.13 194.85" stroke-dasharray="3 6" transform="rotate(20.200000000000003, 400, 400)" opacity="0.81"></path><path d="M403.7 206.82C410.39 204.96 416.77 203.49 422.83 202.41 431.73 201.09 447.75 200.7 454.83 201.65 461.5 203.22 473.03 208.68 477.98 212.52 482.75 216.96 491.54 227.83 495.91 234.19 499.14 238.64 502.5 243.38 506.06 248.38 510.1 253.47 514.47 258.8 519.22 264.33 524.55 269.94 530.32 275.74 536.55 281.7 543.32 287.72 550.47 293.88 557.93 300.15 565.72 306.47 573.61 312.89 581.42 319.39 589.16 325.91 596.49 332.5 603.21 339.14 609.34 345.79 614.51 352.48 618.51 359.18 621.49 365.89 623.08 372.6 623.17 379.3 622.11 385.99 619.56 392.67 615.58 399.29 610.72 405.91 604.87 412.31 598.3 418.49 591.48 424.67 584.41 430.61 577.34 436.31 570.65 442 564.31 447.44 558.48 452.62 551.26 460.26 541.52 474.22 538.84 480.54 537.62 492.11 537.82 507.35 537.24 511.8 533.38 520.48 521.17 533.22 514.9 537.53 510.36 540.63 505.36 543.75 499.97 546.86 494.44 550.23 488.59 553.63 482.47 557.03 476.27 560.68 469.85 564.32 463.26 567.93 456.64 571.75 449.9 575.51 443.05 579.15 436.2 582.91 429.28 586.51 422.3 589.87 415.32 593.26 408.45 596.25 401.69 598.82 394.93 601.31 388.27 603.31 381.72 604.8 375.13 606.12 368.62 606.89 362.19 607.1 355.7 607.1 349.26 606.52 342.86 605.38 336.38 604 329.92 602.07 323.48 599.62 316.95 596.93 310.42 593.75 303.92 590.1 297.34 586.25 290.78 581.98 284.28 577.32 277.74 572.51 271.3 567.35 264.99 561.9 258.72 556.33 252.65 550.5 246.84 544.46 241.17 538.34 235.85 532.05 230.92 525.6 226.26 519.12 222.07 512.52 218.42 505.83 215.11 499.13 212.39 492.35 210.29 485.54 208.54 478.73 207.41 471.88 206.9 465.03 206.67 458.18 206.98 451.34 207.81 444.51 208.74 437.69 210.06 430.89 211.71 424.12 213.24 417.37 214.94 410.64 216.75 403.98 218.22 397.31 219.65 390.85 221 384.61 221.91 378.35 222.73 372.31 223.45 366.48 223.93 357.83 224.51 341.53 224.92 333.89 225.42 326.41 228.15 312.4 230.62 305.84 233.84 299.39 243.09 287.24 249.08 281.53 253.48 277.67 258.3 273.97 263.49 270.4 268.9 266.73 274.64 263.18 280.65 259.77 286.83 256.23 293.23 252.81 299.8 249.52 306.48 246.1 313.29 242.79 320.18 239.62 327.14 236.31 334.15 233.14 341.18 230.13 348.25 227 355.31 224.03 362.33 221.25 369.38 218.39 376.37 215.74 383.27 213.33 390.19 210.87 397.01 208.69 403.69 206.82" stroke-dasharray="1 3" transform="rotate(25.25, 400, 400)" opacity="0.76"></path><path d="M395.8 218.79C404.89 216.29 421.59 213.19 429.17 212.64 436.42 212.61 449.39 214.69 455.16 216.78 462.78 220.2 469.58 225.13 475.87 231.41 482.97 238.14 490.3 246.11 498.34 255.11 508.06 264.44 519.11 274.67 531.51 285.57 545.47 296.67 560.12 308.33 574.5 320.33 581.48 326.37 588.01 332.48 593.89 338.64 599.2 344.82 603.59 351.03 606.91 357.26 609.33 363.49 610.5 369.74 610.36 375.96 609.23 382.2 606.8 388.41 603.12 394.57 598.67 400.73 593.34 406.7 587.34 412.45 581.1 418.21 574.57 423.75 567.96 429.07 561.62 434.38 555.51 439.47 549.75 444.33 544.63 449.19 540.01 453.82 535.95 458.21 530.13 467.01 526.28 474.92 523.85 481.95 523.31 489.13 522.75 495.58 521.45 501.37 520.28 507.55 517.42 513.33 512.69 518.79 507.35 524.94 500.1 531.01 491.19 537.01 486.56 540.33 481.58 543.66 476.28 546.97 470.92 550.48 465.28 553.97 459.42 557.41 453.52 561.02 447.43 564.55 441.17 567.95 434.91 571.46 428.49 574.79 421.95 577.9 415.41 581.03 408.91 583.8 402.45 586.18 395.98 588.49 389.56 590.35 383.17 591.77 376.78 593.04 370.4 593.82 364.07 594.1 357.69 594.2 351.34 593.78 345 592.87 332.19 590.42 319.4 586 306.73 579.83 293.98 572.95 281.5 564.53 269.61 554.88 258.1 544.81 247.63 533.76 238.68 522.03 230.79 510.13 224.86 497.73 221.21 485.08 219.86 478.75 219.07 472.37 218.83 465.97 218.83 459.57 219.31 453.15 220.24 446.74 221.25 440.34 222.6 433.94 224.24 427.57 225.76 421.21 227.44 414.87 229.21 408.58 230.68 402.28 232.11 396.18 233.47 390.27 234.87 381.5 236.71 364.89 237.27 357.06 237.38 351.89 237.57 346.89 237.88 342.09 238.17 332.41 239.57 323.41 242.32 315.13 245.57 306.64 250.59 298.75 257.27 291.47 264.8 283.85 273.89 276.72 284.18 270.12 295.12 263.08 306.95 256.47 319.29 250.39 325.58 247.19 331.95 244.11 338.36 241.18 344.82 238.16 351.29 235.3 357.74 232.63 364.21 229.88 370.64 227.34 377 225.03 383.37 222.68 389.64 220.59 395.79 218.79" stroke-dasharray="9 8" transform="rotate(30.299999999999997, 400, 400)" opacity="0.72"></path><path d="M388.42 230.76C399.7 227.37 410.01 225.36 419.32 224.72 428.62 224.38 437 225.52 444.56 228.05 452.36 230.99 459.69 235.33 466.85 240.91 474.83 246.88 483.24 254.02 492.37 262.12 502.89 270.53 514.48 279.8 526.99 289.72 540.51 299.83 554.23 310.5 567.26 321.52 579.33 332.64 588.99 344.04 595.12 355.53 598.15 367.05 596.68 378.62 590.66 390.05 582.02 401.47 570.83 412.19 558.54 422.11 546.95 432.02 536.22 441.16 527.03 449.47 520.31 457.81 515.27 465.39 511.57 472.23 509.7 479.22 508.13 485.61 506.24 491.44 504.81 497.65 502.2 503.51 498.15 509.08 493.8 515.26 487.81 521.33 480.28 527.28 472.41 533.96 463.2 540.55 452.86 546.89 442.4 553.79 431.02 560.25 418.9 565.93 406.78 571.68 394.54 575.99 382.3 578.74 370.05 581.03 357.74 581.52 345.47 580.24 333.14 578.28 320.84 574.54 308.74 569.21 296.72 563.26 285.1 555.88 274.2 547.33 263.81 538.39 254.54 528.48 246.8 517.87 240.08 507.07 235.21 495.74 232.42 484.11 230.69 472.43 230.85 460.52 232.77 448.58 234.89 436.64 237.98 424.69 241.67 412.87 244.25 401.05 246.64 389.89 248.71 379.44 249.4 368.95 250.06 359.12 250.93 349.98 251.18 340.73 252.31 332.09 254.52 324.09 257.01 315.89 261 308.22 266.46 301.11 272.58 293.69 280.15 286.73 288.91 280.25 298.24 273.39 308.51 266.96 319.39 261.05 330.59 254.77 342.15 249.02 353.77 243.96 365.5 238.67 377.13 234.2 388.41 230.76" stroke-dasharray="4 10" transform="rotate(35.349999999999994, 400, 400)" opacity="0.67"></path><path d="M382.46 242.73C392.78 239.5 402.39 237.54 411.26 236.84 420.16 236.39 428.45 237.28 436.24 239.44 444.31 241.94 452.22 245.72 460.18 250.63 468.89 255.88 478.09 262.21 487.95 269.45 498.87 276.95 510.55 285.27 522.76 294.23 535.51 303.36 548.06 313.03 559.63 323.06 570.11 333.19 578.24 343.61 583.17 354.14 585.42 364.71 583.78 375.34 578.19 385.88 570.4 396.42 560.3 406.35 549.06 415.59 538.23 424.83 527.85 433.39 518.56 441.26 511.22 449.17 505.24 456.44 500.44 463.09 497.33 469.89 494.68 476.2 492.01 482.04 490.01 488.22 487.25 494.1 483.45 499.72 479.62 505.85 474.45 511.85 467.94 517.68 461.23 524.11 453.24 530.39 444.11 536.37 434.88 542.8 424.64 548.75 413.52 553.96 402.4 559.23 390.99 563.18 379.46 565.72 367.95 567.91 356.3 568.49 344.67 567.5 333.08 565.96 321.55 562.83 310.31 558.26 299.28 553.17 288.74 546.76 279.02 539.25 269.88 531.38 261.88 522.58 255.38 513.07 249.8 503.38 245.94 493.12 243.95 482.52 242.82 471.85 243.35 460.91 245.41 449.88 247.56 438.84 250.57 427.73 254.14 416.69 256.69 405.65 259.12 395.18 261.28 385.34 262.18 375.45 263.04 366.14 264.03 357.43 264.33 348.63 265.31 340.36 267.16 332.64 269.07 324.75 272.23 317.33 276.66 310.41 281.54 303.23 287.74 296.45 295.06 290.15 302.84 283.52 311.58 277.3 320.99 271.59 330.68 265.57 340.84 260.08 351.19 255.25 361.64 250.24 372.14 246 382.45 242.73" stroke-dasharray="0 4" transform="rotate(40.400000000000006, 400, 400)" opacity="0.62"></path><path d="M378.67 254.7C388.1 251.64 397.1 249.76 405.64 249.01 414.23 248.47 422.5 249.14 430.53 250.95 438.85 253.05 447.22 256.3 455.78 260.59 464.95 265.16 474.61 270.72 484.77 277.12 495.67 283.75 507.04 291.15 518.58 299.15 530.29 307.31 541.51 316 551.57 325.06 560.49 334.19 567.2 343.64 571.04 353.22 572.62 362.84 570.87 372.55 565.73 382.23 558.75 391.91 549.7 401.07 539.52 409.65 529.51 418.23 519.64 426.25 510.48 433.69 502.8 441.18 496.15 448.15 490.48 454.59 486.28 461.19 482.59 467.38 479.08 473.17 476.33 479.27 473.15 485.1 469.29 490.68 465.56 496.69 460.83 502.54 455 508.2 449.09 514.33 442.05 520.26 433.93 525.84 425.75 531.79 416.57 537.25 406.47 541.99 396.38 546.78 385.91 550.38 375.26 552.71 364.64 554.78 353.88 555.42 343.15 554.67 332.52 553.48 322.02 550.89 311.88 547 302.04 542.69 292.75 537.17 284.34 530.63 276.5 523.78 269.8 516.03 264.51 507.59 260.02 498.98 257.08 489.79 255.8 480.21 255.18 470.57 256.01 460.62 258.15 450.51 260.29 440.39 263.19 430.15 266.6 419.91 269.11 409.68 271.55 399.91 273.78 390.68 274.9 381.41 275.96 372.63 277.11 364.37 277.56 356.02 278.51 348.13 280.14 340.73 281.66 333.18 284.2 326.04 287.8 319.35 291.67 312.43 296.69 305.9 302.74 299.8 309.12 293.44 316.43 287.47 324.46 282 332.7 276.28 341.5 271.07 350.63 266.5 359.83 261.78 369.23 257.79 378.67 254.7" stroke-dasharray="10 5" transform="rotate(45.45, 400, 400)" opacity="0.57"></path><path d="M377.5 266.67C386.13 263.8 394.57 262 402.8 261.22 411.11 260.61 419.33 261.09 427.5 262.59 435.94 264.33 444.56 267.09 453.41 270.79 462.72 274.72 472.43 279.55 482.48 285.16 492.96 290.96 503.65 297.47 514.23 304.55 524.7 311.77 534.49 319.5 543.02 327.59 550.46 335.76 555.88 344.24 558.76 352.89 559.78 361.57 557.96 370.39 553.27 379.22 547.06 388.05 539.01 396.46 529.89 404.4 520.77 412.34 511.54 419.84 502.71 426.85 494.95 433.91 487.91 440.56 481.64 446.77 476.58 453.13 472.01 459.16 467.7 464.84 464.15 470.78 460.41 476.49 456.27 481.95 452.38 487.76 447.77 493.4 442.33 498.81 436.91 504.59 430.55 510.14 423.26 515.31 415.94 520.76 407.71 525.73 398.63 530.02 389.54 534.35 380.09 537.6 370.45 539.72 360.87 541.64 351.17 542.31 341.55 541.76 332.07 540.87 322.78 538.74 313.91 535.46 305.37 531.84 297.43 527.14 290.37 521.49 283.85 515.59 278.41 508.84 274.26 501.42 270.78 493.85 268.65 485.71 267.97 477.15 267.78 468.52 268.82 459.55 270.98 450.38 273.07 441.19 275.83 431.83 279.06 422.41 281.51 412.99 283.93 403.95 286.22 395.35 287.53 386.72 288.8 378.49 290.13 370.7 290.77 362.83 291.8 355.36 293.33 348.31 294.65 341.13 296.77 334.31 299.76 327.9 302.85 321.3 306.93 315.05 311.91 309.21 317.11 303.16 323.17 297.49 329.96 292.29 336.9 286.9 344.45 282 352.44 277.7 360.48 273.3 368.88 269.57 377.5 266.67" stroke-dasharray="9 8" transform="rotate(50.5, 400, 400)" opacity="0.53"></path><path d="M379.11 278.64C386.98 275.97 394.89 274.26 402.78 273.48 410.73 272.82 418.78 273.13 426.92 274.36 435.26 275.76 443.84 278.08 452.63 281.24 461.73 284.59 471.11 288.74 480.65 293.59 490.38 298.6 500.1 304.27 509.48 310.48 518.59 316.79 526.9 323.59 533.96 330.76 540.02 337.98 544.27 345.52 546.33 353.27 546.88 361.03 545.04 368.96 540.8 376.96 535.33 384.96 528.26 392.64 520.16 399.94 511.97 407.25 503.5 414.21 495.17 420.78 487.58 427.41 480.43 433.7 473.84 439.64 468.19 445.71 462.94 451.51 457.99 457.01 453.71 462.73 449.4 468.24 444.89 473.5 440.69 479.05 436.01 484.41 430.76 489.51 425.58 494.9 419.69 500.03 413.07 504.77 406.44 509.72 399.05 514.21 390.95 518.05 382.84 521.93 374.44 524.83 365.92 526.75 357.45 528.51 348.92 529.18 340.54 528.79 332.31 528.14 324.34 526.4 316.83 523.66 309.63 520.65 303.06 516.68 297.34 511.85 292.08 506.82 287.8 501.01 284.68 494.56 282.09 487.98 280.66 480.84 280.46 473.27 280.6 465.64 281.77 457.65 283.89 449.41 285.9 441.15 288.49 432.69 291.53 424.1 293.88 415.52 296.27 407.22 298.59 399.27 300.06 391.3 301.53 383.65 303.04 376.37 303.92 369.03 305.08 362.01 306.63 355.35 307.89 348.58 309.78 342.13 312.36 336.05 314.91 329.81 318.28 323.9 322.44 318.37 326.69 312.68 331.73 307.35 337.48 302.46 343.3 297.43 349.76 292.86 356.75 288.87 363.76 284.79 371.24 281.34 379.11 278.64" stroke-dasharray="10 2" transform="rotate(55.550000000000004, 400, 400)" opacity="0.48"></path><path d="M383.29 290.61C390.45 288.15 397.79 286.55 405.25 285.78 412.76 285.09 420.46 285.27 428.32 286.25 436.31 287.36 444.53 289.28 452.91 291.95 461.46 294.75 470.16 298.27 478.85 302.43 487.57 306.71 496.09 311.58 504.15 316.95 511.84 322.41 518.7 328.32 524.37 334.6 529.17 340.91 532.39 347.55 533.75 354.41 533.93 361.29 532.13 368.36 528.33 375.54 523.56 382.72 517.42 389.67 510.33 396.34 503.09 403.01 495.46 409.42 487.78 415.53 480.57 421.69 473.59 427.59 466.95 433.21 461 438.93 455.35 444.43 449.97 449.68 445.14 455.1 440.35 460.33 435.51 465.32 430.97 470.53 426.15 475.54 420.98 480.28 415.91 485.24 410.35 489.92 404.27 494.21 398.2 498.67 391.56 502.67 384.38 506.08 377.21 509.51 369.85 512.09 362.47 513.79 355.13 515.38 347.84 516.03 340.75 515.76 333.79 515.3 327.16 513.9 321.01 511.63 315.12 509.15 309.86 505.83 305.38 501.75 301.27 497.5 298.04 492.55 295.81 487.01 293.96 481.36 293.1 475.17 293.26 468.56 293.63 461.9 294.86 454.86 296.89 447.55 298.78 440.23 301.18 432.65 303.99 424.92 306.23 417.18 308.55 409.65 310.86 402.39 312.47 395.11 314.1 388.08 315.79 381.34 316.91 374.56 318.25 368.04 319.89 361.82 321.2 355.53 323.01 349.5 325.35 343.8 327.58 337.98 330.47 332.46 334.03 327.29 337.59 322 341.84 317.04 346.75 312.51 351.67 307.87 357.23 303.67 363.35 299.99 369.47 296.26 376.13 293.09 383.29 290.61" stroke-dasharray="4 4" transform="rotate(60.599999999999994, 400, 400)" opacity="0.43"></path><path d="M389.53 302.58C395.99 300.35 402.71 298.87 409.61 298.12 416.54 297.43 423.7 297.5 431.02 298.26 438.41 299.12 445.98 300.69 453.63 302.9 461.34 305.22 469.08 308.17 476.68 311.68 484.19 315.28 491.4 319.41 498.07 324 504.36 328.65 509.84 333.73 514.23 339.15 517.91 344.6 520.25 350.37 521.05 356.37 520.94 362.39 519.22 368.62 515.87 375 511.77 381.38 506.5 387.6 500.4 393.62 494.11 399.64 487.37 405.48 480.47 411.09 473.83 416.74 467.24 422.2 460.82 427.44 454.88 432.75 449.11 437.89 443.55 442.81 438.41 447.85 433.34 452.72 428.29 457.37 423.51 462.17 418.59 466.78 413.49 471.11 408.5 475.6 403.21 479.81 397.6 483.65 392.01 487.59 386.05 491.12 379.75 494.11 373.44 497.12 367.1 499.36 360.83 500.86 351.55 502.57 334.27 501.82 326.71 499.4 320 496.01 310.29 485.6 307.62 478.82 306.15 471.39 307.47 454.25 309.97 444.8 311.7 438.39 313.88 431.71 316.45 424.84 318.55 417.96 320.78 411.22 323.04 404.67 324.74 398.11 326.5 391.74 328.33 385.59 329.67 379.41 331.2 373.44 332.96 367.72 335.31 359.18 341.84 343.26 346.29 335.97 349.38 331.12 353.07 326.59 357.33 322.45 361.57 318.23 366.39 314.41 371.77 311.07 377.15 307.7 383.07 304.83 389.53 302.58" stroke-dasharray="8 5" transform="rotate(65.65, 400, 400)" opacity="0.38"></path><path d="M397.06 314.55C408.58 310.59 421.18 309.29 434.23 310.39 447.39 311.76 460.92 315.55 473.75 321.32 486.01 327.35 496.49 335.22 503.56 344.42 508.39 353.72 508.57 364.19 503.41 375.36 496 386.53 485.28 397.35 473.15 407.46 461.51 417.69 449.75 427.43 438.56 436.35 428.52 445.64 418.55 454.34 408.55 461.99 398.93 470.06 388.58 477.03 377.6 482.14 366.62 487.31 356.07 489.76 346.65 489.61 337.53 489.09 330.05 485.87 324.94 480.32 320.51 474.42 318.68 466.39 319.67 456.76 320.79 447 323.99 435.87 328.92 423.85 332.36 411.84 336.36 400.11 340.6 389.11 343.24 378.04 346.77 367.57 351.38 358.1 355.31 348.43 361.03 339.64 368.61 332.27 376.04 324.69 385.54 318.57 397.06 314.55" stroke-dasharray="6 7" transform="rotate(70.69999999999999, 400, 400)" opacity="0.34"></path><path d="M404.96 326.52C415.01 323.05 425.95 321.83 437.12 322.65 448.27 323.63 459.47 326.65 469.74 331.37 479.41 336.25 487.34 342.73 492.36 350.42 495.73 358.17 495.43 367.02 490.94 376.61 484.85 386.21 475.99 395.65 465.75 404.58 455.64 413.61 445.06 422.28 434.73 430.27 425.09 438.5 415.5 446.19 406.11 452.9 397.01 459.88 387.64 465.85 378.22 470.17 368.8 474.53 360.17 476.6 352.81 476.5 342.81 474.89 332.64 461.05 333.23 449.76 334.3 441.66 337.08 432.27 341.38 422.01 344.55 411.74 348.38 401.57 352.56 391.95 355.52 382.28 359.25 373.06 363.83 364.69 367.78 356.19 373.12 348.46 379.92 341.98 386.54 335.37 394.89 330.04 404.96 326.52" stroke-dasharray="9 5" transform="rotate(75.75, 400, 400)" opacity="0.29"></path><path d="M412.24 338.49C420.76 335.53 429.83 334.44 438.9 335.01 447.9 335.69 456.65 338.04 464.41 341.79 471.65 345.64 477.34 350.84 480.66 357.11 482.86 363.4 482.25 370.69 478.48 378.71 473.62 386.73 466.52 394.74 458.2 402.4 449.81 410.12 440.77 417.6 431.73 424.5 423.05 431.56 414.34 438.14 405.91 443.83 397.67 449.69 389.44 454.65 381.52 458.2 370.15 462.62 353.39 462.2 348.84 457.6 346.51 453.86 345.85 448.6 346.95 442.12 347.87 435.57 350.2 427.89 353.84 419.36 356.67 410.84 360.21 402.3 364.17 394.14 367.27 385.95 371.06 378.09 375.51 370.93 379.47 363.69 384.47 357.11 390.55 351.59 396.47 346 403.71 341.48 412.24 338.49" stroke-dasharray="10 9" transform="rotate(80.80000000000001, 400, 400)" opacity="0.24"></path><path d="M418.01 350.46C424.92 348.04 432.04 347.11 438.93 347.49 448.96 348.8 464.61 357.51 468.5 364.43 469.8 369.36 469.05 375.14 466.02 381.58 462.3 388.02 456.87 394.53 450.43 400.82 443.85 407.14 436.59 413.3 429.18 419 421.91 424.78 414.54 430.15 407.42 434.77 400.4 439.48 393.52 443.43 387.1 446.23 371.62 449.57 360.09 441.02 360.79 433.94 361.51 428.85 363.35 422.81 366.31 416.02 368.72 409.23 371.84 402.36 375.41 395.74 378.42 389.12 382.05 382.71 386.19 376.86 389.99 370.97 394.55 365.6 399.84 361.1 405.01 356.57 411.09 352.9 418.01 350.46" stroke-dasharray="8 6" transform="rotate(85.85, 400, 400)" opacity="0.19"></path><path d="M421.56 362.43C432.01 358.75 442.11 359.49 449.31 363.64 455.64 367.87 457.71 375.39 453.55 385.12 447.91 394.83 437.83 404.99 426.71 413.69 415.69 422.57 404.08 430.15 394.27 434.26 381.27 438.23 373.54 426.07 378.77 412.1 382.27 401.97 388.34 391.43 395.66 382.51 402.22 373.56 411.1 366.16 421.56 362.43" stroke-dasharray="3 6" transform="rotate(90.9, 400, 400)" opacity="0.15"></path><path d="M422.45 374.41C436.41 369.42 446.1 376.14 441.09 389.19 433.52 402.22 415.46 416.93 402.15 422.29 388.82 427.72 384.49 421.14 391.23 407.74 395.7 394.32 408.48 379.46 422.45 374.41" stroke-dasharray="7 7" transform="rotate(95.94999999999999, 400, 400)" opacity="0.10"></path></g></svg>