<svg xmlns="http://www.w3.org/2000/svg" xmlns:xlink="http://www.w3.org/1999/xlink" width="50" zoomAndPan="magnify" viewBox="0 0 37.5 37.499999" height="50" preserveAspectRatio="xMidYMid meet" version="1.0"><defs><clipPath id="b2f65f34a3"><path d="M 0 0 L 37.007812 0 L 37.007812 37.007812 L 0 37.007812 Z M 0 0 " clip-rule="nonzero"/></clipPath><clipPath id="f6c98c96a8"><path d="M 1.835938 0.917969 L 21.648438 0.917969 L 21.648438 37.007812 L 1.835938 37.007812 Z M 1.835938 0.917969 " clip-rule="nonzero"/></clipPath><clipPath id="cc44754bcd"><path d="M 7.875 3.933594 L 35.585938 3.933594 L 35.585938 34.632812 L 7.875 34.632812 Z M 7.875 3.933594 " clip-rule="nonzero"/></clipPath></defs><g clip-path="url(#b2f65f34a3)"><path fill="#ffffff" d="M 0 0 L 37.5 0 L 37.5 45 L 0 45 Z M 0 0 " fill-opacity="1" fill-rule="nonzero"/><path fill="#ffffff" d="M 0 0 L 37.5 0 L 37.5 37.5 L 0 37.5 Z M 0 0 " fill-opacity="1" fill-rule="nonzero"/><path fill="#ffffff" d="M 0 0 L 37.5 0 L 37.5 37.5 L 0 37.5 Z M 0 0 " fill-opacity="1" fill-rule="nonzero"/></g><g clip-path="url(#f6c98c96a8)"><path fill="#5ed17f" d="M 4.867188 19.289062 C 4.867188 9.65625 12.234375 1.753906 21.605469 0.980469 C 21.101562 0.9375 20.597656 0.917969 20.085938 0.917969 C 10.007812 0.917969 1.835938 9.144531 1.835938 19.289062 C 1.835938 29.4375 10.007812 37.664062 20.085938 37.664062 C 20.597656 37.664062 21.101562 37.644531 21.605469 37.601562 C 12.234375 36.828125 4.867188 28.925781 4.867188 19.289062 " fill-opacity="1" fill-rule="nonzero"/></g><g clip-path="url(#cc44754bcd)"><path fill="#5ed17f" d="M 31.628906 28.070312 C 29.433594 30.230469 26.429688 31.558594 23.117188 31.558594 C 16.386719 31.558594 10.929688 26.066406 10.929688 19.289062 C 10.929688 12.515625 16.386719 7.019531 23.117188 7.019531 C 26.429688 7.019531 29.433594 8.351562 31.628906 10.511719 L 35.589844 10.511719 C 32.835938 6.554688 28.277344 3.96875 23.117188 3.96875 C 14.710938 3.96875 7.898438 10.828125 7.898438 19.289062 C 7.898438 27.753906 14.710938 34.613281 23.117188 34.613281 C 28.277344 34.613281 32.835938 32.023438 35.589844 28.070312 L 31.628906 28.070312 " fill-opacity="1" fill-rule="nonzero"/></g><path fill="#5ed17f" d="M 17.105469 20.382812 C 17.042969 20.035156 17.011719 19.675781 17.011719 19.308594 C 17.011719 18.941406 17.042969 18.582031 17.105469 18.234375 C 17.574219 14.167969 20.675781 10.914062 24.648438 10.238281 C 24.148438 10.152344 23.636719 10.109375 23.117188 10.109375 C 18.070312 10.109375 13.980469 14.226562 13.980469 19.308594 C 13.980469 24.390625 18.070312 28.507812 23.117188 28.507812 C 23.636719 28.507812 24.148438 28.464844 24.648438 28.378906 C 20.675781 27.703125 17.574219 24.449219 17.105469 20.382812 " fill-opacity="1" fill-rule="nonzero"/></svg>