<svg xmlns="http://www.w3.org/2000/svg" xmlns:xlink="http://www.w3.org/1999/xlink" width="100" zoomAndPan="magnify" viewBox="0 0 75 37.5" height="50" preserveAspectRatio="xMidYMid meet" version="1.0"><defs><g/><clipPath id="76d577f239"><path d="M 0.492188 0 L 74.503906 0 L 74.503906 37.007812 L 0.492188 37.007812 Z M 0.492188 0 " clip-rule="nonzero"/></clipPath><clipPath id="4f19112435"><path d="M 1.414062 5.84375 L 15.75 5.84375 L 15.75 32.480469 L 1.414062 32.480469 Z M 1.414062 5.84375 " clip-rule="nonzero"/></clipPath><clipPath id="201df0e4fd"><path d="M 5.785156 8.03125 L 25.839844 8.03125 L 25.839844 30.285156 L 5.785156 30.285156 Z M 5.785156 8.03125 " clip-rule="nonzero"/></clipPath></defs><g clip-path="url(#76d577f239)"><path fill="#ffffff" d="M 0.492188 0 L 74.507812 0 L 74.507812 44.40625 L 0.492188 44.40625 Z M 0.492188 0 " fill-opacity="1" fill-rule="nonzero"/><path fill="#ffffff" d="M 0.492188 0 L 74.507812 0 L 74.507812 37.007812 L 0.492188 37.007812 Z M 0.492188 0 " fill-opacity="1" fill-rule="nonzero"/><path fill="#ffffff" d="M 0.492188 0 L 74.507812 0 L 74.507812 37.007812 L 0.492188 37.007812 Z M 0.492188 0 " fill-opacity="1" fill-rule="nonzero"/></g><g fill="#5ed17f" fill-opacity="1"><g transform="translate(28.916048, 25.717143)"><g><path d="M 25.03125 -16 L 19.9375 0.1875 L 19.796875 0.578125 L 15.34375 0.578125 L 15.234375 0.15625 L 12.34375 -9.578125 L 9.46875 0.15625 L 9.34375 0.578125 L 4.90625 0.578125 L 4.765625 0.1875 L -0.328125 -16 L -0.5625 -16.78125 L 4 -16.78125 L 4.109375 -16.359375 L 7.15625 -5.84375 L 10.15625 -16.359375 L 10.28125 -16.78125 L 14.53125 -16.78125 L 14.65625 -16.359375 L 17.65625 -5.84375 L 20.703125 -16.359375 L 20.8125 -16.78125 L 25.265625 -16.78125 Z M 25.03125 -16 "/></g></g></g><g fill="#5ed17f" fill-opacity="1"><g transform="translate(56.33651, 25.717143)"><g><path d="M 16.796875 -16.1875 L 16.796875 0.578125 L 12.84375 0.578125 L 12.6875 0.34375 L 6.046875 -8.890625 L 6.046875 0.578125 L 1.8125 0.578125 L 1.8125 -16.78125 L 5.765625 -16.78125 L 5.9375 -16.546875 L 12.5625 -7.328125 L 12.5625 -16.78125 L 16.796875 -16.78125 Z M 16.796875 -16.1875 "/></g></g></g><g clip-path="url(#4f19112435)"><path fill="#5ed17f" d="M 3.605469 19.164062 C 3.605469 12.179688 8.9375 6.453125 15.71875 5.890625 C 15.355469 5.859375 14.988281 5.84375 14.621094 5.84375 C 7.324219 5.84375 1.414062 11.808594 1.414062 19.164062 C 1.414062 26.519531 7.324219 32.480469 14.621094 32.480469 C 14.988281 32.480469 15.355469 32.464844 15.71875 32.433594 C 8.9375 31.875 3.605469 26.144531 3.605469 19.164062 " fill-opacity="1" fill-rule="nonzero"/></g><g clip-path="url(#201df0e4fd)"><path fill="#5ed17f" d="M 22.972656 25.523438 C 21.382812 27.089844 19.210938 28.054688 16.8125 28.054688 C 11.941406 28.054688 7.996094 24.074219 7.996094 19.164062 C 7.996094 14.25 11.941406 10.269531 16.8125 10.269531 C 19.210938 10.269531 21.382812 11.234375 22.972656 12.800781 L 25.839844 12.800781 C 23.847656 9.933594 20.546875 8.058594 16.8125 8.058594 C 10.730469 8.058594 5.800781 13.03125 5.800781 19.164062 C 5.800781 25.296875 10.730469 30.269531 16.8125 30.269531 C 20.546875 30.269531 23.847656 28.394531 25.839844 25.523438 L 22.972656 25.523438 " fill-opacity="1" fill-rule="nonzero"/></g><path fill="#5ed17f" d="M 12.460938 19.953125 C 12.417969 19.699219 12.394531 19.441406 12.394531 19.175781 C 12.394531 18.910156 12.417969 18.648438 12.460938 18.398438 C 12.800781 15.449219 15.046875 13.089844 17.921875 12.601562 C 17.558594 12.539062 17.191406 12.507812 16.8125 12.507812 C 13.160156 12.507812 10.199219 15.492188 10.199219 19.175781 C 10.199219 22.859375 13.160156 25.84375 16.8125 25.84375 C 17.191406 25.84375 17.558594 25.8125 17.921875 25.75 C 15.046875 25.261719 12.800781 22.902344 12.460938 19.953125 " fill-opacity="1" fill-rule="nonzero"/></svg>